<svg width="48" height="48" viewBox="0 0 48 48" fill="none" xmlns="http://www.w3.org/2000/svg">
<rect width="48" height="48" rx="12" fill="white" fill-opacity="0.95"/>
<path d="M15.9995 26.0007C15.8103 26.0013 15.6247 25.9482 15.4645 25.8476C15.3042 25.747 15.1757 25.603 15.0941 25.4323C15.0124 25.2616 14.9808 25.0712 15.003 24.8833C15.0252 24.6954 15.1003 24.5176 15.2195 24.3707L25.1195 14.1707C25.1938 14.0849 25.295 14.027 25.4065 14.0064C25.518 13.9858 25.6332 14.0037 25.7332 14.0572C25.8332 14.1106 25.9121 14.1965 25.9568 14.3008C26.0016 14.405 26.0096 14.5213 25.9795 14.6307L24.0595 20.6507C24.0029 20.8022 23.9839 20.9652 24.0041 21.1257C24.0243 21.2861 24.0832 21.4393 24.1756 21.5721C24.268 21.7048 24.3913 21.8132 24.5348 21.8878C24.6783 21.9625 24.8377 22.0012 24.9995 22.0007H31.9995C32.1887 22 32.3743 22.0531 32.5345 22.1537C32.6948 22.2543 32.8233 22.3983 32.905 22.569C32.9866 22.7397 33.0182 22.9301 32.996 23.118C32.9738 23.3059 32.8987 23.4837 32.7795 23.6307L22.8795 33.8307C22.8052 33.9164 22.704 33.9743 22.5925 33.9949C22.481 34.0155 22.3658 33.9976 22.2658 33.9441C22.1658 33.8907 22.0869 33.8048 22.0422 33.7005C21.9974 33.5963 21.9894 33.48 22.0195 33.3707L23.9395 27.3507C23.9961 27.1991 24.0151 27.0361 23.9949 26.8756C23.9747 26.7152 23.9158 26.562 23.8234 26.4292C23.731 26.2965 23.6077 26.1881 23.4642 26.1135C23.3207 26.0388 23.1613 26.0001 22.9995 26.0007H15.9995Z" stroke="#DC2626" stroke-width="2" stroke-linecap="round" stroke-linejoin="round"/>
</svg>
