<svg width="48" height="48" viewBox="0 0 48 48" fill="none" xmlns="http://www.w3.org/2000/svg">
<path d="M0 14C0 6.26801 6.26801 0 14 0H34C41.732 0 48 6.26801 48 14V34C48 41.732 41.732 48 34 48H14C6.26801 48 0 41.732 0 34V14Z" fill="#FEF2F2"/>
<path d="M24 34C29.5228 34 34 29.5228 34 24C34 18.4772 29.5228 14 24 14C18.4772 14 14 18.4772 14 24C14 29.5228 18.4772 34 24 34Z" stroke="#D31145" stroke-width="2" stroke-linecap="round" stroke-linejoin="round"/>
<path d="M24 14C21.4322 16.6962 20 20.2767 20 24C20 27.7233 21.4322 31.3038 24 34C26.5678 31.3038 28 27.7233 28 24C28 20.2767 26.5678 16.6962 24 14Z" stroke="#D31145" stroke-width="2" stroke-linecap="round" stroke-linejoin="round"/>
<path d="M14 24H34" stroke="#D31145" stroke-width="2" stroke-linecap="round" stroke-linejoin="round"/>
</svg>
