<svg width="48" height="48" viewBox="0 0 48 48" fill="none" xmlns="http://www.w3.org/2000/svg">
<path d="M0 14C0 6.26801 6.26801 0 14 0H34C41.732 0 48 6.26801 48 14V34C48 41.732 41.732 48 34 48H14C6.26801 48 0 41.732 0 34V14Z" fill="#FEF2F2"/>
<path d="M27.39 16.3901C27.5157 16.5159 27.6727 16.6059 27.8448 16.6509C28.0169 16.6958 28.1978 16.6941 28.369 16.6458C28.5402 16.5975 28.6954 16.5044 28.8186 16.3761C28.9418 16.2479 29.0286 16.0891 29.07 15.9161C29.1738 15.484 29.3909 15.0874 29.699 14.7671C30.007 14.4468 30.3949 14.2144 30.8226 14.0938C31.2503 13.9733 31.7025 13.9689 32.1324 14.0812C32.5624 14.1934 32.9547 14.4183 33.2689 14.7326C33.5831 15.0469 33.8078 15.4392 33.9199 15.8692C34.0321 16.2993 34.0275 16.7514 33.9068 17.1791C33.7861 17.6068 33.5536 17.9946 33.2332 18.3025C32.9128 18.6104 32.5161 18.8274 32.084 18.9311C31.911 18.9725 31.7522 19.0593 31.6239 19.1825C31.4957 19.3057 31.4026 19.4609 31.3543 19.6321C31.306 19.8033 31.3042 19.9842 31.3492 20.1563C31.3941 20.3284 31.4842 20.4854 31.61 20.6111L33.293 22.2931C33.5172 22.5173 33.695 22.7834 33.8163 23.0763C33.9376 23.3691 34.0001 23.6831 34.0001 24.0001C34.0001 24.3171 33.9376 24.631 33.8163 24.9239C33.695 25.2168 33.5172 25.4829 33.293 25.7071L31.61 27.3901C31.4843 27.5159 31.3273 27.6059 31.1552 27.6509C30.9831 27.6958 30.8022 27.6941 30.631 27.6458C30.4598 27.5975 30.3046 27.5044 30.1814 27.3761C30.0582 27.2479 29.9714 27.0891 29.93 26.9161C29.8262 26.484 29.6091 26.0874 29.301 25.7671C28.993 25.4468 28.6051 25.2144 28.1774 25.0938C27.7496 24.9733 27.2975 24.9689 26.8675 25.0812C26.4375 25.1934 26.0453 25.4183 25.7311 25.7326C25.4169 26.0469 25.1922 26.4392 25.08 26.8692C24.9679 27.2993 24.9724 27.7514 25.0931 28.1791C25.2138 28.6068 25.4464 28.9946 25.7668 29.3025C26.0872 29.6104 26.4838 29.8274 26.916 29.9311C27.089 29.9725 27.2478 30.0593 27.376 30.1825C27.5043 30.3057 27.5974 30.4609 27.6457 30.6321C27.694 30.8033 27.6957 30.9842 27.6508 31.1563C27.6058 31.3284 27.5158 31.4854 27.39 31.6111L25.707 33.2931C25.4828 33.5173 25.2167 33.6951 24.9238 33.8164C24.6309 33.9377 24.317 34.0002 24 34.0002C23.683 34.0002 23.369 33.9377 23.0762 33.8164C22.7833 33.6951 22.5171 33.5173 22.293 33.2931L20.61 31.6101C20.4843 31.4843 20.3273 31.3942 20.1552 31.3493C19.9831 31.3043 19.8022 31.3061 19.631 31.3544C19.4598 31.4027 19.3046 31.4958 19.1814 31.624C19.0582 31.7523 18.9714 31.9111 18.93 32.0841C18.8262 32.5162 18.6091 32.9128 18.301 33.2331C17.993 33.5534 17.6051 33.7858 17.1774 33.9064C16.7496 34.0269 16.2975 34.0313 15.8675 33.919C15.4375 33.8067 15.0453 33.5819 14.7311 33.2676C14.4169 32.9533 14.1922 32.561 14.08 32.1309C13.9679 31.7009 13.9724 31.2488 14.0931 30.8211C14.2138 30.3934 14.4464 30.0056 14.7668 29.6977C15.0872 29.3897 15.4838 29.1728 15.916 29.0691C16.089 29.0277 16.2478 28.9409 16.376 28.8177C16.5043 28.6945 16.5974 28.5393 16.6457 28.3681C16.694 28.1969 16.6957 28.016 16.6508 27.8439C16.6058 27.6718 16.5158 27.5148 16.39 27.3891L14.707 25.7071C14.4828 25.4829 14.305 25.2168 14.1837 24.9239C14.0623 24.631 13.9999 24.3171 13.9999 24.0001C13.9999 23.6831 14.0623 23.3691 14.1837 23.0763C14.305 22.7834 14.4828 22.5173 14.707 22.2931L16.39 20.6101C16.5157 20.4843 16.6727 20.3942 16.8448 20.3493C17.0169 20.3043 17.1978 20.3061 17.369 20.3544C17.5402 20.4027 17.6954 20.4958 17.8186 20.624C17.9418 20.7523 18.0286 20.9111 18.07 21.0841C18.1738 21.5162 18.3909 21.9128 18.699 22.2331C19.007 22.5534 19.3949 22.7858 19.8226 22.9064C20.2503 23.0269 20.7025 23.0313 21.1324 22.919C21.5624 22.8067 21.9547 22.5819 22.2689 22.2676C22.5831 21.9533 22.8078 21.561 22.9199 21.1309C23.0321 20.7009 23.0275 20.2488 22.9068 19.8211C22.7861 19.3934 22.5536 19.0056 22.2332 18.6977C21.9128 18.3897 21.5161 18.1727 21.084 18.0691C20.911 18.0277 20.7522 17.9409 20.6239 17.8177C20.4957 17.6945 20.4026 17.5393 20.3543 17.3681C20.306 17.1969 20.3042 17.016 20.3492 16.8439C20.3941 16.6718 20.4842 16.5148 20.61 16.3891L22.293 14.7071C22.5171 14.4829 22.7833 14.3051 23.0762 14.1838C23.369 14.0624 23.683 14 24 14C24.317 14 24.6309 14.0624 24.9238 14.1838C25.2167 14.3051 25.4828 14.4829 25.707 14.7071L27.39 16.3901Z" stroke="#D31145" stroke-width="2" stroke-linecap="round" stroke-linejoin="round"/>
</svg>
